<?xml version="1.0" encoding="utf-8"?>
<!-- Generator: Adobe Illustrator 27.0.0, SVG Export Plug-In . SVG Version: 6.00 Build 0)  -->
<svg version="1.1" id="Layer_1" xmlns="http://www.w3.org/2000/svg" xmlns:xlink="http://www.w3.org/1999/xlink" x="0px" y="0px"
	 viewBox="0 0 50 43" style="enable-background:new 0 0 50 43;" xml:space="preserve">
<style type="text/css">
	.st0{opacity:0.3;enable-background:new    ;}
	.st1{fill:#0EA5EA;}
	.st2{fill:url(#SVGID_1_);}
	.st3{fill:url(#SVGID_00000067220944611279046650000001821505143662655142_);}
</style>
<g>
	<g class="st0">
		<circle class="st1" cx="13.9" cy="35.1" r="3.3"/>
		<path class="st1" d="M13.9,30.7L13.9,30.7c1.6-0.3,3.2,0.5,4.1,2c0.3,0.5,0.5,1.1,0.5,1.6c0.4,2.7-1.5,5.5-3.5,6.8
			c-0.4,0.3-0.5,0.9-0.3,1.3l0,0c0.3,0.5,0.9,0.7,1.3,0.4c4-2.3,6.1-5.9,6.1-5.9c8.5,2.3,11.7-6.4,11.7-6.4
			c-12.9,4-17.6-3.7-18.8-6.4l-3.1-0.5C12,27.5,13.9,30.7,13.9,30.7z"/>
	</g>
	<g>
		<path class="st1" d="M32.2,7.3c1.9,0,3.3-1.6,3.2-3.3c0-1.9-1.6-3.3-3.3-3.2c-1.9,0-3.3,1.6-3.2,3.3C28.8,5.8,30.3,7.3,32.2,7.3z"
			/>
		<path class="st1" d="M35.9,6.2L35.9,6.2c-0.7,1.5-2,2.5-3.7,2.7c-0.5,0-1.2-0.1-1.6-0.3c-2.5-0.9-4-4-4.1-6.4
			c0-0.5-0.5-0.9-0.9-0.9l0,0c-0.5,0-0.9,0.4-0.9,1.1c0,4.5,2.1,8.3,2.1,8.3c-6.3,6.3-0.4,13.3-0.4,13.3c2.9-13.2,12-13.3,14.9-13.1
			l1.9-2.4C39.6,6.1,35.9,6.2,35.9,6.2z"/>
	</g>
	<g>
		
			<linearGradient id="SVGID_1_" gradientUnits="userSpaceOnUse" x1="-348.9387" y1="-292.1751" x2="-342.3189" y2="-292.1751" gradientTransform="matrix(0.4861 -0.8739 -0.8739 -0.4861 -73.3169 -429.7241)">
			<stop  offset="0" style="stop-color:#025DBF"/>
			<stop  offset="1" style="stop-color:#0090D5"/>
		</linearGradient>
		<path class="st2" d="M16.9,15.9c0.9-1.6,0.3-3.6-1.3-4.5c-1.6-0.9-3.6-0.3-4.5,1.3c-0.9,1.6-0.3,3.6,1.3,4.5
			C14,18.1,16,17.5,16.9,15.9z"/>
		
			<linearGradient id="SVGID_00000116939428410377510930000018236642835463514792_" gradientUnits="userSpaceOnUse" x1="-354.3619" y1="-300.4616" x2="-334.8947" y2="-300.4616" gradientTransform="matrix(0.4861 -0.8739 -0.8739 -0.4861 -73.3169 -429.7241)">
			<stop  offset="0" style="stop-color:#025DBF"/>
			<stop  offset="1" style="stop-color:#0090D5"/>
		</linearGradient>
		<path style="fill:url(#SVGID_00000116939428410377510930000018236642835463514792_);" d="M17.9,12.1L17.9,12.1
			c1.1,1.3,1.2,3.1,0.4,4.5c-0.3,0.5-0.7,0.9-1.1,1.3c-2.1,1.7-5.5,1.5-7.7,0.4c-0.5-0.3-1.1,0-1.3,0.4l0,0
			c-0.3,0.5-0.1,1.1,0.4,1.3c4,2.3,8.1,2.3,8.1,2.3c2.3,8.5,11.3,7.1,11.3,7.1c-10-9.2-5.6-17.2-3.9-19.5l-1.1-2.8
			C19.6,8.9,17.9,12.1,17.9,12.1z"/>
	</g>
</g>
</svg>
