<?xml version="1.0" encoding="utf-8"?>
<!-- Generator: Adobe Illustrator 27.0.0, SVG Export Plug-In . SVG Version: 6.00 Build 0)  -->
<svg version="1.1" id="Layer_1" xmlns="http://www.w3.org/2000/svg" xmlns:xlink="http://www.w3.org/1999/xlink" x="0px" y="0px"
	 viewBox="0 0 126 36" style="enable-background:new 0 0 126 36;" xml:space="preserve">
<style type="text/css">
	.st0{fill:#D8E6FB;}
	.st1{opacity:0.3;enable-background:new    ;}
	.st2{fill:#0EA5EA;}
	.st3{fill:url(#SVGID_1_);}
	.st4{fill:url(#SVGID_00000057842502005159187210000018407285006261878181_);}
</style>
<g>
	<g>
		<path class="st0" d="M38.3,21.5c0.1,1.2,0.6,2.1,1.2,2.7c0.7,0.6,1.5,0.9,2.6,0.9c1.3,0,2.7-0.4,4-1.3l1.9,2.5
			c-0.8,0.7-1.7,1.2-2.8,1.6c-1.1,0.4-2.2,0.6-3.5,0.6c-1.8,0-3.2-0.4-4.5-1s-2.1-1.7-2.8-2.9c-0.6-1.3-0.9-2.7-0.9-4.3
			c0-1.6,0.3-3,0.9-4.3c0.6-1.3,1.5-2.3,2.6-3c1.2-0.7,2.5-1.1,4.1-1.1c1.5,0,2.8,0.3,3.9,1c1.1,0.6,2,1.6,2.6,2.8
			c0.6,1.2,0.9,2.6,0.9,4.3c0,0.6,0,1.2-0.1,1.7H38.3z M39.1,15.8c-0.5,0.6-0.8,1.6-0.9,2.9H44c0-2.5-1-3.8-2.8-3.8
			C40.3,14.9,39.6,15.2,39.1,15.8z"/>
		<path class="st0" d="M65.1,20.6H52.3v-3.6h12.8V20.6z"/>
		<path class="st0" d="M81.8,25.7C80,27.2,77.6,28,74.6,28h-5.5V7.5h5.2c2,0,3.7,0.3,5.2,0.8c1.5,0.6,2.7,1.6,3.6,3.1
			c0.9,1.5,1.4,3.6,1.4,6.2C84.6,21.5,83.6,24.2,81.8,25.7z M79,13.6c-0.4-1-0.9-1.6-1.6-2C76.7,11.2,75.9,11,75,11h-1v13.5h1
			c1,0,1.8-0.2,2.4-0.6c0.7-0.4,1.2-1.1,1.6-2.1c0.4-1,0.6-2.4,0.6-4.1C79.5,15.9,79.3,14.5,79,13.6z"/>
		<path class="st0" d="M91.4,21.5c0.1,1.2,0.6,2.1,1.2,2.7c0.7,0.6,1.5,0.9,2.6,0.9c1.3,0,2.7-0.4,4-1.3l1.9,2.5
			c-0.8,0.7-1.7,1.2-2.8,1.6c-1.1,0.4-2.2,0.6-3.5,0.6c-1.8,0-3.2-0.4-4.5-1s-2.1-1.7-2.8-2.9c-0.6-1.3-0.9-2.7-0.9-4.3
			c0-1.6,0.3-3,0.9-4.3c0.6-1.3,1.5-2.3,2.6-3c1.2-0.7,2.5-1.1,4.1-1.1c1.5,0,2.8,0.3,3.9,1c1.1,0.6,2,1.6,2.6,2.8
			c0.6,1.2,0.9,2.6,0.9,4.3c0,0.6,0,1.2-0.1,1.7H91.4z M92.3,15.8c-0.5,0.6-0.8,1.6-0.9,2.9h5.8c0-2.5-1-3.8-2.8-3.8
			C93.5,14.9,92.8,15.2,92.3,15.8z"/>
		<path class="st0" d="M115.2,12.3h4.7L114.7,28h-5.5l-5.3-15.7h5l3.1,12.1L115.2,12.3z"/>
	</g>
	<g>
		<g class="st1">
			<circle class="st2" cx="10.5" cy="28" r="2.5"/>
			<path class="st2" d="M10.5,24.7L10.5,24.7c1.2-0.2,2.4,0.4,3.1,1.5c0.2,0.4,0.4,0.8,0.4,1.2c0.3,2-1.1,4.1-2.6,5.1
				c-0.3,0.2-0.4,0.7-0.2,1l0,0c0.2,0.4,0.7,0.5,1,0.3c3-1.7,4.6-4.4,4.6-4.4c6.4,1.7,8.8-4.8,8.8-4.8c-9.7,3-13.2-2.8-14.1-4.8
				l-2.3-0.4C9.1,22.3,10.5,24.7,10.5,24.7z"/>
		</g>
		<g>
			<path class="st2" d="M24.2,7.1c1.4,0,2.5-1.2,2.4-2.5c0-1.4-1.2-2.5-2.5-2.4c-1.4,0-2.5,1.2-2.4,2.5C21.7,6,22.8,7.1,24.2,7.1z"
				/>
			<path class="st2" d="M27,6.3L27,6.3c-0.5,1.1-1.5,1.9-2.8,2c-0.4,0-0.9-0.1-1.2-0.2c-1.9-0.7-3-3-3.1-4.8c0-0.4-0.4-0.7-0.7-0.7
				l0,0c-0.4,0-0.7,0.3-0.7,0.8c0,3.4,1.6,6.2,1.6,6.2c-4.7,4.7-0.3,10-0.3,10c2.2-9.9,9-10,11.2-9.8l1.4-1.8
				C29.8,6.2,27,6.3,27,6.3z"/>
		</g>
		<g>
			
				<linearGradient id="SVGID_1_" gradientUnits="userSpaceOnUse" x1="268.3841" y1="-32.0907" x2="273.3482" y2="-32.0907" gradientTransform="matrix(0.4861 -0.8739 0.8739 0.4861 -93.0521 264.7115)">
				<stop  offset="0" style="stop-color:#025DBF"/>
				<stop  offset="1" style="stop-color:#0090D5"/>
			</linearGradient>
			<path class="st3" d="M12.8,13.6c0.7-1.2,0.2-2.7-1-3.4c-1.2-0.7-2.7-0.2-3.4,1c-0.7,1.2-0.2,2.7,1,3.4
				C10.6,15.2,12.1,14.8,12.8,13.6z"/>
			
				<linearGradient id="SVGID_00000032643300270359768070000001273022710141015483_" gradientUnits="userSpaceOnUse" x1="264.3173" y1="-25.8261" x2="278.9155" y2="-25.8261" gradientTransform="matrix(0.4861 -0.8739 0.8739 0.4861 -93.0521 264.7115)">
				<stop  offset="0" style="stop-color:#025DBF"/>
				<stop  offset="1" style="stop-color:#0090D5"/>
			</linearGradient>
			<path style="fill:url(#SVGID_00000032643300270359768070000001273022710141015483_);" d="M13.5,10.7L13.5,10.7
				c0.8,1,0.9,2.3,0.3,3.4c-0.2,0.4-0.5,0.7-0.8,1c-1.6,1.3-4.1,1.1-5.8,0.3c-0.4-0.2-0.8,0-1,0.3l0,0c-0.2,0.4-0.1,0.8,0.3,1
				c3,1.7,6.1,1.7,6.1,1.7c1.7,6.4,8.5,5.3,8.5,5.3c-7.5-6.9-4.2-12.9-2.9-14.6L17.4,7C14.8,8.3,13.5,10.7,13.5,10.7z"/>
		</g>
	</g>
</g>
</svg>
